HIERARCHY
ROOT Hips
{
	OFFSET 0.00000 0.00000 0.00000
	CHANNELS 6 Xposition Yposition Zposition Zrotation Yrotation Xrotation 
	JOINT LHipJoint
	{
		OFFSET 0 0 0
		CHANNELS 3 Zrotation Yrotation Xrotation
		JOINT LeftUpLeg
		{
			OFFSET 1.37590 -1.78394 0.89329
			CHANNELS 3 Zrotation Yrotation Xrotation
			JOINT LeftLeg
			{
				OFFSET 2.47928 -6.81178 0.00000
				CHANNELS 3 Zrotation Yrotation Xrotation
				JOINT LeftFoot
				{
					OFFSET 2.63345 -7.23535 0.00000
					CHANNELS 3 Zrotation Yrotation Xrotation
					JOINT LeftToeBase
					{
						OFFSET 0.23938 -0.65768 2.27012
						CHANNELS 3 Zrotation Yrotation Xrotation
						End Site
						{
							OFFSET 0.00000 -0.00000 1.18363
						}
					}
				}
			}
		}
	}
	JOINT RHipJoint
	{
		OFFSET 0 0 0
		CHANNELS 3 Zrotation Yrotation Xrotation
		JOINT RightUpLeg
		{
			OFFSET -1.33617 -1.78394 0.89329
			CHANNELS 3 Zrotation Yrotation Xrotation
			JOINT RightLeg
			{
				OFFSET -2.56922 -7.05888 0.00000
				CHANNELS 3 Zrotation Yrotation Xrotation
				JOINT RightFoot
				{
					OFFSET -2.56568 -7.04915 0.00000
					CHANNELS 3 Zrotation Yrotation Xrotation
					JOINT RightToeBase
					{
						OFFSET -0.27533 -0.75646 2.18105
						CHANNELS 3 Zrotation Yrotation Xrotation
						End Site
						{
							OFFSET -0.00000 -0.00000 1.15233
						}
					}
				}
			}
		}
	}
	JOINT LowerBack
	{
		OFFSET 0 0 0
		CHANNELS 3 Zrotation Yrotation Xrotation
		JOINT Spine
		{
			OFFSET 0.06190 2.15152 -0.00935
			CHANNELS 3 Zrotation Yrotation Xrotation
			JOINT Spine1
			{
				OFFSET 0.06334 2.15332 0.00872
				CHANNELS 3 Zrotation Yrotation Xrotation
				JOINT Neck
				{
					OFFSET 0 0 0
					CHANNELS 3 Zrotation Yrotation Xrotation
					JOINT Neck1
					{
						OFFSET -0.04202 1.66908 0.23524
						CHANNELS 3 Zrotation Yrotation Xrotation
						JOINT Head
						{
							OFFSET 0.07510 1.69357 -0.24440
							CHANNELS 3 Zrotation Yrotation Xrotation
							End Site
							{
								OFFSET 0.02556 1.71719 -0.11000
							}
						}
					}
				}
				JOINT LeftShoulder
				{
					OFFSET 0 0 0
					CHANNELS 3 Zrotation Yrotation Xrotation
					JOINT LeftArm
					{
						OFFSET 3.67168 1.26306 -0.41342
						CHANNELS 3 Zrotation Yrotation Xrotation
						JOINT LeftForeArm
						{
							OFFSET 4.68510 -0.00000 -0.00000
							CHANNELS 3 Zrotation Yrotation Xrotation
							JOINT LeftHand
							{
								OFFSET 3.39626 -0.00000 -0.00000
								CHANNELS 3 Zrotation Yrotation Xrotation
								JOINT LeftFingerBase
								{
									OFFSET 0 0 0
									CHANNELS 3 Zrotation Yrotation Xrotation
									JOINT LeftHandIndex1
									{
										OFFSET 0.48608 -0.00000 -0.00000
										CHANNELS 3 Zrotation Yrotation Xrotation
										End Site
										{
											OFFSET 0.39189 -0.00000 -0.00000
										}
									}
								}
								JOINT LThumb
								{
									OFFSET 0 0 0
									CHANNELS 3 Zrotation Yrotation Xrotation
									End Site
									{
										OFFSET 0.39787 -0.00000 0.39787
									}
								}
							}
						}
					}
				}
				JOINT RightShoulder
				{
					OFFSET 0 0 0
					CHANNELS 3 Zrotation Yrotation Xrotation
					JOINT RightArm
					{
						OFFSET -3.04136 1.42992 -0.76390
						CHANNELS 3 Zrotation Yrotation Xrotation
						JOINT RightForeArm
						{
							OFFSET -5.55576 -0.00000 -0.00000
							CHANNELS 3 Zrotation Yrotation Xrotation
							JOINT RightHand
							{
								OFFSET -3.32774 -0.00000 -0.00000
								CHANNELS 3 Zrotation Yrotation Xrotation
								JOINT RightFingerBase
								{
									OFFSET 0 0 0
									CHANNELS 3 Zrotation Yrotation Xrotation
									JOINT RightHandIndex1
									{
										OFFSET -0.50763 -0.00000 -0.00000
										CHANNELS 3 Zrotation Yrotation Xrotation
										End Site
										{
											OFFSET -0.40926 -0.00000 -0.00000
										}
									}
								}
								JOINT RThumb
								{
									OFFSET 0 0 0
									CHANNELS 3 Zrotation Yrotation Xrotation
									End Site
									{
										OFFSET -0.41551 -0.00000 0.41551
									}
								}
							}
						}
					}
				}
			}
		}
	}
}
MOTION
Frames: 5
Frame Time: 0.0526316
0.00 0.00 0.00 -26.7728 -83.2702 36.2054 0.0000 0.0000 0.0000 -18.2170 -6.1717 -0.5778 1.6853 8.1772 23.2535 -0.7520 -16.4559 -0.8045 0.0087 0.6031 1.6573 0.0000 0.0000 0.0000 19.6648 11.1598 -29.1827 -0.6863 -5.2964 14.7560 0.7130 -14.8651 -3.6201 -0.4087 -4.1039 11.3692 0.3366 -1.1722 -0.5923 2.1249 -1.5633 -2.0924 2.0054 -0.7818 -1.7621 -15.5512 -13.4728 -7.0803 12.0426 -17.0588 -1.1714 4.9239 -8.2975 3.1236 0.0000 0.0000 0.0000 -84.9137 4.0399 6.3203 14.0882 -22.8606 -2.8623 -0.0000 -0.0000 20.1713 16.6628 23.4681 6.7973 -7.1250 0.0000 -0.0000 -13.1392 53.8780 -2.9064 0.0000 0.0000 0.0000 90.3468 0.3375 -1.5218 -10.7511 17.9057 -1.6986 0.0000 0.0000 24.9857 -5.9116 -28.8964 2.8644 7.1250 -0.0000 -0.0000 27.1143 -56.8694 -8.3051
0.00 0.00 0.00 -40.1486 -82.1208 49.5241 0.0000 0.0000 0.0000 -13.4148 -7.0306 -8.1048 4.4975 12.7945 38.6039 -0.4995 -12.5196 6.4239 0.1857 -2.7757 -7.6548 0.0000 0.0000 0.0000 25.0268 11.1175 -22.5755 -0.7310 -5.4625 15.2324 0.5076 -12.5255 -3.8833 -1.1180 -6.7170 18.8795 3.8062 -1.5038 -0.7737 3.2204 -2.0181 -2.1370 1.1933 -1.0717 -1.7758 -14.4647 -12.6650 -8.1881 10.5003 -15.9168 0.4586 4.3385 -7.7277 3.4163 0.0000 0.0000 0.0000 -87.3843 11.5118 -17.0607 8.4728 -14.3163 -1.0660 -0.0000 -0.0000 36.6052 15.3251 24.9621 6.5969 -7.1250 0.0000 -0.0000 -15.2133 55.0934 -3.8360 0.0000 0.0000 0.0000 87.0490 -9.8502 -11.5736 -8.6889 14.6633 -1.1201 0.0000 0.0000 27.4913 -2.5095 -27.5098 1.1597 7.1250 -0.0000 -0.0000 29.3727 -54.9802 -7.6895
0.00 0.00 0.00 -155.5040 -79.7130 162.1410 0.0000 0.0000 0.0000 -11.7426 -9.6378 -18.1001 0.8001 5.7090 15.9424 0.0009 1.5099 -2.2517 0.0000 0.0269 0.0740 0.0000 0.0000 0.0000 23.7557 7.2049 -10.2504 -6.9567 -15.2953 48.7103 0.2482 -8.8796 -1.9420 -0.0100 -0.6443 1.7704 2.8669 -0.1344 -2.5536 1.2892 -0.2653 -2.7520 -0.2870 -0.1938 -1.3981 -12.7847 -10.3380 -12.5102 9.0936 -13.1363 12.4971 3.5433 -6.2593 7.3356 -0.0000 0.0000 0.0000 -87.3885 3.2611 21.5871 23.1109 -34.2099 -7.2006 -0.0000 -0.0000 8.6119 15.4325 25.2752 6.7223 -7.1250 0.0000 -0.0000 -15.2684 55.4198 -3.9726 -0.0000 0.0000 0.0000 86.9794 6.6410 37.1478 -38.4091 47.0986 -17.2646 0.0000 0.0000 13.2643 -22.6936 -21.2730 8.6271 7.1250 -0.0000 -0.0000 6.2029 -52.7551 -1.1874
0.00 0.00 0.00 -177.6430 -81.5661 184.0980 0.0000 0.0000 0.0000 -21.5174 -2.8753 -2.2894 0.4979 4.5238 12.5552 0.3894 -4.0723 -11.0965 0.0001 0.0740 0.2034 0.0000 0.0000 0.0000 16.3818 7.4283 -33.0345 -3.7714 -11.8498 35.2026 0.8574 -16.5267 -10.0478 -0.2809 -3.4087 9.4187 -1.6079 -2.7239 -2.1876 1.4381 -3.6359 -2.1962 2.3168 -1.8039 -0.8348 -10.9283 -8.6535 -14.6472 8.7413 -10.7649 11.2377 3.4017 -5.0055 6.8989 0.0000 -0.0000 0.0000 -87.3581 -4.5422 50.4213 41.1046 -48.7109 -19.2652 -0.0000 0.0000 -6.9314 14.3266 35.0012 8.3340 -7.1250 0.0000 -0.0000 -23.8451 64.3072 -11.4624 0.0000 -0.0000 0.0000 82.8229 6.8324 43.1516 -83.7590 59.8523 -54.5978 0.0000 0.0000 23.8863 -28.5992 -17.5821 9.3521 7.1250 -0.0000 -0.0000 -0.6191 -49.8237 0.0736
0.00 0.00 0.00 -176.7940 -83.0266 184.6190 0.0000 0.0000 0.0000 -21.5722 -1.9192 0.0892 0.7414 5.5005 15.3417 0.5694 -6.1122 -13.4839 0.0623 -1.6109 -4.4316 0.0000 0.0000 0.0000 16.5942 9.2060 -33.1435 -1.1831 -6.9031 19.4286 0.7648 -15.5563 -9.0174 -0.1697 -2.6541 7.3172 -1.8058 -3.3893 -2.6637 1.7695 -4.5214 -2.3866 2.7230 -2.2469 -0.6781 -10.6335 -8.5312 -14.7880 9.0196 -10.5835 9.8642 3.4764 -4.8888 6.4645 -0.0000 0.0000 0.0000 -89.7813 -13.4459 60.9396 54.9111 -54.7939 -30.1433 -0.0000 0.0000 -12.1684 14.5241 36.6715 8.7951 -7.1250 0.0000 -0.0000 -25.5197 65.8429 -13.2193 -0.0000 0.0000 0.0000 79.2860 12.9165 43.7123 -101.0188 59.5362 -69.5277 0.0000 0.0000 26.9403 -31.2190 -17.5070 10.3327 7.1250 -0.0000 -0.0000 -3.2636 -50.1984 0.4186
